<svg width="289" height="219" viewBox="0 0 289 219" fill="none" xmlns="http://www.w3.org/2000/svg">
<g clip-path="url(#clip0_627_223)">
<path d="M254.622 203.668C254.601 203.578 252.565 194.535 256.724 187.023C260.884 179.512 269.763 176.2 269.853 176.167L270.259 176.019L270.354 176.431C270.375 176.521 272.412 185.565 268.253 193.076C264.093 200.587 255.213 203.899 255.124 203.932L254.718 204.08L254.622 203.668ZM269.702 177.024C267.923 177.769 260.904 181.029 257.39 187.373C253.877 193.717 254.937 201.22 255.275 203.075C257.053 202.332 264.07 199.077 267.586 192.726C271.1 186.382 270.04 178.88 269.702 177.024Z" fill="#3F3D56"/>
<path d="M265.077 190.441C257.602 194.82 254.723 203.518 254.723 203.518C254.723 203.518 263.964 205.116 271.439 200.737C278.914 196.358 281.793 187.66 281.793 187.66C281.793 187.66 272.552 186.062 265.077 190.441Z" fill="#D0CDE1"/>
<path d="M102.66 164.092C101.771 164.092 100.873 164.079 99.9912 164.052L100.011 163.428C101.277 163.467 102.569 163.477 103.84 163.46L103.849 164.084C103.453 164.09 103.057 164.092 102.66 164.092ZM107.704 163.948L107.667 163.325C108.934 163.252 110.218 163.15 111.482 163.021L111.549 163.641C110.275 163.771 108.982 163.874 107.704 163.948ZM96.1392 163.85C94.8611 163.755 93.5695 163.63 92.3001 163.478L92.3783 162.859C93.638 163.01 94.9196 163.134 96.1881 163.228L96.1392 163.85ZM115.376 163.164L115.28 162.548C116.539 162.362 117.808 162.146 119.051 161.905L119.175 162.517C117.923 162.759 116.645 162.977 115.376 163.164ZM88.483 162.936C87.2203 162.728 85.9458 162.488 84.6948 162.224L84.8308 161.614C86.0722 161.877 87.3369 162.114 88.59 162.321L88.483 162.936ZM122.941 161.7L122.787 161.095C124.024 160.797 125.267 160.468 126.482 160.117L126.664 160.715C125.44 161.069 124.187 161.4 122.941 161.7ZM80.9447 161.342C79.7061 161.022 78.4597 160.669 77.2401 160.293L77.4331 159.699C78.6435 160.071 79.8804 160.421 81.1093 160.739L80.9447 161.342ZM130.337 159.564L130.127 158.975C131.326 158.569 132.533 158.13 133.713 157.67L133.951 158.249C132.762 158.712 131.546 159.155 130.337 159.564ZM73.5796 159.075C72.3767 158.645 71.1662 158.18 69.9823 157.695L70.231 157.119C71.4059 157.601 72.6069 158.062 73.8008 158.49L73.5796 159.075ZM137.491 156.777L137.226 156.209C138.378 155.699 139.536 155.155 140.668 154.592L140.959 155.147C139.819 155.715 138.652 156.263 137.491 156.777ZM144.347 153.364L144.03 152.823C145.135 152.209 146.238 151.564 147.307 150.905L147.65 151.432C146.572 152.096 145.461 152.746 144.347 153.364ZM150.859 149.353L150.492 148.842C151.532 148.134 152.571 147.393 153.578 146.639L153.968 147.134C152.953 147.894 151.907 148.64 150.859 149.353ZM53.1928 148.475C52.1585 147.743 51.1253 146.977 50.1217 146.197L50.5216 145.709C51.5175 146.483 52.5429 147.244 53.5691 147.97L53.1928 148.475ZM156.971 144.779L156.558 144.302C157.528 143.505 158.493 142.675 159.427 141.834L159.861 142.293C158.921 143.14 157.948 143.976 156.971 144.779ZM47.1612 143.785C46.198 142.964 45.241 142.11 44.317 141.246L44.7607 140.796C45.6778 141.653 46.6274 142.501 47.5833 143.316L47.1612 143.785ZM162.633 139.68L162.177 139.242C163.071 138.36 163.955 137.447 164.805 136.529L165.281 136.946C164.425 137.872 163.534 138.791 162.633 139.68ZM41.5952 138.584C40.7114 137.679 39.8386 136.744 39.001 135.805L39.4851 135.396C40.3162 136.328 41.1823 137.256 42.0595 138.154L41.5952 138.584ZM167.798 134.098L167.303 133.702C168.111 132.745 168.906 131.758 169.667 130.767L170.18 131.14C169.413 132.139 168.612 133.134 167.798 134.098ZM36.54 132.914C35.7463 131.937 34.9649 130.929 34.2172 129.917L34.7372 129.553C35.4793 130.557 36.2548 131.557 37.0424 132.527L36.54 132.914ZM172.421 128.079L171.891 127.729C172.606 126.704 173.306 125.65 173.971 124.594L174.518 124.921C173.846 125.984 173.141 127.047 172.421 128.079ZM32.0379 126.822C31.3397 125.78 30.6564 124.708 30.0067 123.634L30.5586 123.317C31.2035 124.383 31.8816 125.447 32.5745 126.481L32.0379 126.822ZM176.463 121.671L175.902 121.37C176.518 120.286 177.115 119.173 177.679 118.061L178.254 118.338C177.686 119.458 177.083 120.579 176.463 121.671H176.463ZM179.885 114.926L179.298 114.676C179.809 113.541 180.299 112.378 180.756 111.22L181.354 111.444C180.894 112.611 180.4 113.782 179.885 114.926H179.885ZM24.8432 113.58C24.352 112.432 23.8815 111.258 23.445 110.089L24.0474 109.876C24.4804 111.036 24.9472 112.201 25.4346 113.34L24.8432 113.58ZM182.656 107.898L182.048 107.701C182.448 106.528 182.825 105.329 183.169 104.137L183.786 104.306C183.439 105.507 183.059 106.716 182.656 107.898ZM22.2107 106.53C21.8294 105.341 21.4712 104.127 21.1459 102.92L21.7658 102.761C22.0885 103.959 22.4441 105.165 22.8224 106.344L22.2107 106.53ZM184.745 100.667L184.12 100.526C184.407 99.3232 184.67 98.0951 184.9 96.8762L185.53 96.989C185.298 98.2176 185.034 99.4548 184.745 100.667ZM20.2536 99.265C19.9864 98.0464 19.7445 96.8049 19.5349 95.5745L20.1669 95.4721C20.3751 96.6934 20.6151 97.9255 20.8803 99.1346L20.2536 99.265ZM186.141 93.2804L185.506 93.1957C185.678 91.9738 185.824 90.7278 185.939 89.4921L186.577 89.5482C186.461 90.7936 186.314 92.049 186.141 93.2804ZM18.9907 91.8559C18.8396 90.6208 18.7156 89.3629 18.6219 88.1172L19.2611 88.0715C19.3539 89.3081 19.4771 90.5563 19.6272 91.7822L18.9907 91.8559ZM186.838 85.8009L186.198 85.7729C186.255 84.5367 186.284 83.2827 186.284 82.0461H186.925C186.925 83.2922 186.895 84.5555 186.838 85.8009ZM18.4277 84.3654C18.4058 83.6005 18.3947 82.8199 18.3945 82.0461C18.3945 81.566 18.3988 81.0868 18.4072 80.6085L19.048 80.6195C19.0396 81.0941 19.0353 81.5697 19.0353 82.0461C19.0355 82.8142 19.0466 83.5889 19.0682 84.3484L18.4277 84.3654ZM19.2001 76.8946L18.5605 76.8556C18.6405 75.609 18.7509 74.3499 18.8884 73.1132L19.5255 73.1803C19.3889 74.4078 19.2795 75.6573 19.2001 76.8946H19.2001ZM185.87 73.0882C185.742 71.8582 185.566 71.2584 185.38 70.0338L186.014 69.9426C186.201 71.1766 186.362 72.1186 186.491 73.3579L185.87 73.0882ZM20.0244 69.4846L19.3911 69.3893C19.5874 68.155 19.8155 66.9109 20.0691 65.6913L20.6971 65.8149C20.4455 67.0253 20.2192 68.2599 20.0244 69.4846H20.0244ZM184.733 66.3601C184.489 65.143 184.213 63.9179 183.914 62.7188L184.536 62.5713C184.838 63.7796 185.116 65.0142 185.362 66.2404L184.733 66.3601ZM21.5422 62.1794L20.9207 62.0277C21.2318 60.8193 21.5765 59.6008 21.9451 58.406L22.5586 58.5854C22.193 59.7711 21.851 60.9803 21.5422 62.1794ZM182.922 59.118C182.565 57.93 182.175 56.735 181.762 55.5657L182.368 55.3628C182.784 56.5411 183.177 57.7455 183.538 58.9425L182.922 59.118ZM23.7481 55.0312L23.1436 54.8244C23.5694 53.6449 24.0292 52.4598 24.5101 51.302L25.1043 51.536C24.627 52.6848 24.1706 53.8609 23.7481 55.0312ZM180.434 52.0692C179.967 50.921 179.466 49.7687 178.946 48.644L179.53 48.3878C180.054 49.5211 180.559 50.6823 181.03 51.8392L180.434 52.0692ZM26.6242 48.1065L26.0419 47.846C26.5771 46.7112 27.1467 45.5732 27.7349 44.4636L28.3044 44.7497C27.7205 45.8509 27.1553 46.9802 26.6242 48.1065ZM177.298 45.2877C176.724 44.1862 176.117 43.0825 175.492 42.0075L176.049 41.7001C176.679 42.7835 177.291 43.8956 177.869 45.0056L177.298 45.2877ZM30.1412 41.4726L29.5858 41.1612C30.2251 40.0805 30.8992 38.9987 31.5896 37.9461L32.1296 38.2818C31.4446 39.3265 30.7754 40.4 30.1412 41.4726ZM173.533 38.8099C172.856 37.7604 172.147 36.7148 171.426 35.7022L171.952 35.3467C172.679 36.3671 173.394 37.4206 174.076 38.4782L173.533 38.8099ZM34.2657 35.1838L33.742 34.8243C34.4807 33.8042 35.253 32.7874 36.0381 31.8022L36.5443 32.1845C35.7654 33.1625 34.9987 34.1715 34.2657 35.1838ZM169.174 32.6906C168.402 31.7058 167.598 30.7268 166.784 29.7808L167.275 29.3801C168.095 30.3333 168.906 31.3196 169.684 32.3119L169.174 32.6906ZM38.9606 29.2905L38.4728 28.8859C39.3018 27.9378 40.1659 26.9942 41.0409 26.0812L41.5093 26.5067C40.641 27.4129 39.7835 28.3496 38.9606 29.2905ZM164.259 26.9794C163.398 26.0671 162.505 25.1629 161.606 24.2922L162.057 23.8496C162.964 24.7271 163.864 25.638 164.731 26.5572L164.259 26.9794ZM44.1847 23.8398L43.7366 23.3938C44.6529 22.521 45.6011 21.6581 46.5546 20.8291L46.9814 21.2946C46.0351 22.1172 45.0941 22.9736 44.1847 23.8398V23.8398ZM158.829 21.7248C157.886 20.8917 156.912 20.0701 155.934 19.2827L156.343 18.802C157.328 19.5953 158.309 20.4232 159.26 21.2626L158.829 21.7248ZM49.8936 18.876L49.4891 18.3922C50.4801 17.6064 51.5044 16.8313 52.5335 16.0886L52.9152 16.5897C51.8938 17.327 50.8772 18.0961 49.8936 18.876H49.8936ZM56.0396 14.4407L55.6819 13.9231C56.7426 13.2282 57.8346 12.5478 58.9277 11.9003L59.2606 12.4334C58.176 13.0759 57.0923 13.7513 56.0396 14.4407H56.0396ZM62.5718 10.572L62.2642 10.0245C63.3864 9.42664 64.537 8.84659 65.6841 8.3002L65.9657 8.86075C64.8274 9.40288 63.6855 9.97852 62.5718 10.572ZM139.907 9.12641C138.766 8.57332 137.598 8.03896 136.435 7.53827L136.694 6.96765C137.867 7.47216 139.044 8.01062 140.193 8.56798L139.907 9.12641ZM69.4353 7.30323L69.1806 6.73078C70.3534 6.23588 71.553 5.76123 72.746 5.31995L72.9735 5.90335C71.7895 6.34114 70.5991 6.81213 69.4353 7.30323ZM132.891 6.10702C131.705 5.65904 130.49 5.2316 129.281 4.83677L129.485 4.24514C130.703 4.64317 131.927 5.07379 133.123 5.52543L132.891 6.10702ZM76.583 4.66053L76.3834 4.06768C77.6012 3.67895 78.8436 3.31291 80.0761 2.98008L80.2474 3.58115C79.0243 3.91155 77.7914 4.2747 76.583 4.66053H76.583ZM125.624 3.73287C124.402 3.39364 123.156 3.07772 121.92 2.79393L122.067 2.18677C123.313 2.47268 124.568 2.79104 125.8 3.13271L125.624 3.73287ZM83.9592 2.66735L83.8165 2.05912C85.065 1.78143 86.3367 1.52842 87.5963 1.30724L87.7102 1.92111C86.46 2.14076 85.1981 2.3918 83.9592 2.66735ZM118.174 2.02256C116.926 1.79452 115.655 1.59163 114.396 1.4195L114.485 0.80167C115.754 0.975171 117.035 1.17959 118.292 1.4093L118.174 2.02256ZM91.4925 1.34365L91.4077 0.725205C92.6762 0.560389 93.9662 0.421773 95.2419 0.313621L95.2976 0.935109C94.0316 1.04265 92.7516 1.18003 91.4925 1.34365ZM110.594 0.985681C109.331 0.869912 108.047 0.78065 106.775 0.720787L106.806 0.0974716C108.087 0.157946 109.382 0.247817 110.654 0.364512L110.594 0.985681ZM99.1186 0.695806L99.0917 0.0725045C100.269 0.0246744 101.47 0.000305723 102.66 0L102.95 0.000454596L102.948 0.62438L102.66 0.623925C101.479 0.624215 100.287 0.648431 99.1186 0.695806Z" fill="#3F3D56"/>
<path d="M289.001 203.491H54.1484V204.115H289.001V203.491Z" fill="#3F3D56"/>
<path d="M191.603 98.5883L194.807 146.942C194.807 146.942 202.497 165.972 202.176 184.066C202.176 184.066 199.293 191.241 201.535 192.489C203.778 193.737 205.06 194.673 203.778 195.609C202.497 196.544 201.535 198.728 202.497 199.352C203.458 199.976 203.778 200.912 203.458 200.912H193.846C193.846 200.912 195.768 196.233 192.885 194.985C190.001 193.737 191.603 190.617 191.603 190.617L170.136 129.473L153.155 185.626C153.155 185.626 156.039 187.498 153.796 188.433C151.553 189.369 150.592 187.498 151.553 189.369C152.514 191.241 151.233 192.177 151.233 192.489C151.233 192.801 141.621 191.553 141.621 191.553C141.621 191.553 146.427 187.498 144.184 186.562C141.941 185.626 140.98 184.69 141.621 184.066C142.261 183.442 144.825 177.515 144.825 177.515C144.825 177.515 146.106 155.053 146.427 154.118C146.747 153.182 146.427 148.814 146.427 146.63C146.427 144.447 146.106 135.712 147.067 133.528C148.029 131.344 148.99 104.516 154.116 101.396C159.243 98.2763 191.603 98.5883 191.603 98.5883Z" fill="#2F2E41"/>
<path d="M150.914 190.929C150.914 190.929 157.322 203.719 152.836 205.279C148.351 206.839 142.584 205.591 141.302 207.463C140.02 209.335 125.923 211.518 125.602 206.839C125.282 202.16 140.982 193.425 140.982 193.425L143.027 190.218L150.914 190.929Z" fill="#2F2E41"/>
<path d="M202.816 200.288C202.816 200.288 209.224 213.078 204.739 214.638C200.253 216.198 194.486 214.95 193.204 216.822C191.923 218.694 177.825 220.877 177.505 216.198C177.184 211.518 192.884 202.784 192.884 202.784L194.929 199.577L202.816 200.288Z" fill="#2F2E41"/>
<path d="M173.179 39.7829C179.018 39.7829 183.752 35.1738 183.752 29.4881C183.752 23.8025 179.018 19.1934 173.179 19.1934C167.339 19.1934 162.605 23.8025 162.605 29.4881C162.605 35.1738 167.339 39.7829 173.179 39.7829Z" fill="#A0616A"/>
<path d="M180.39 34.9478L179.109 43.9947L169.497 51.1698L166.934 47.7382V35.8836L180.39 34.9478Z" fill="#A0616A"/>
<path d="M165.328 46.4903C165.328 46.4903 175.26 47.4262 180.386 43.9946L190.639 102.956C190.639 102.956 154.434 105.763 152.832 103.891V85.4857L159.24 55.5372L165.328 46.4903Z" fill="#3F3D56"/>
<path d="M179.508 41.1758L182.953 43.9947C182.953 43.9947 197.051 46.1785 196.09 49.922L192.245 94.2207L193.527 109.195C193.527 109.195 182.633 106.387 174.303 109.195C165.972 112.003 172.591 48.8603 172.591 48.8603C172.591 48.8603 180.228 42.1004 179.508 41.1758Z" fill="#D0CDE1"/>
<path d="M166.93 44.5903C166.93 44.5903 156.678 51.7937 155.396 56.4732C154.114 61.1526 149.949 110.443 149.949 110.443C149.949 110.443 151.872 109.507 152.833 111.067C153.794 112.626 168.532 47.0578 166.93 44.5903Z" fill="#D0CDE1"/>
<path d="M162.61 29.0396C162.61 29.0396 161.465 27.3679 161.905 25.5676C162.169 24.5455 162.272 23.4907 162.214 22.4385C162.214 22.4385 163.138 19.5238 164.063 17.8949C164.987 16.2661 164.547 15.5803 167.452 15.0659C170.358 14.5515 169.169 10.8652 176.829 14.8516C177.088 15.2029 177.447 15.4718 177.863 15.6244C178.278 15.777 178.73 15.8064 179.163 15.7088C180.748 15.4088 181.32 17.552 181.32 17.552C181.32 17.552 182.376 16.9519 182.773 17.8092C183.169 18.6665 185.994 17.2947 185.994 23.0814C185.994 28.8681 182.779 34.037 182.779 34.037C182.779 34.037 183.015 24.3031 177.776 23.3173C172.537 22.3314 166.902 19.4595 165.537 23.1458C164.801 25.2148 163.818 27.1928 162.61 29.0396Z" fill="#2F2E41"/>
<path d="M182.893 31.3539C183.463 31.3539 183.926 30.7533 183.926 30.0124C183.926 29.2715 183.463 28.6709 182.893 28.6709C182.322 28.6709 181.859 29.2715 181.859 30.0124C181.859 30.7533 182.322 31.3539 182.893 31.3539Z" fill="#A0616A"/>
<path d="M139.469 126.485C136.934 125.001 133.877 125.114 132.715 125.227C133.157 126.279 134.485 128.963 137.021 130.448C139.562 131.936 142.615 131.819 143.775 131.707C143.333 130.655 142.005 127.971 139.469 126.485Z" fill="#D0CDE1"/>
<path d="M151.384 155.942H135.538C134.592 155.942 133.686 156.308 133.017 156.959C132.348 157.61 131.973 158.493 131.973 159.413C131.973 160.334 132.348 161.217 133.017 161.868C133.686 162.519 134.592 162.885 135.538 162.885H151.384C152.329 162.884 153.235 162.518 153.902 161.867C154.57 161.216 154.946 160.333 154.946 159.413C154.946 158.493 154.57 157.611 153.902 156.96C153.235 156.309 152.329 155.943 151.384 155.942Z" fill="#D0CDE1"/>
<path d="M223.137 119.299H134.296C133.262 119.299 132.239 119.498 131.284 119.883C130.329 120.268 129.462 120.832 128.731 121.544C128 122.255 127.42 123.1 127.025 124.03C126.629 124.959 126.426 125.956 126.426 126.962V169.108C126.426 171.14 127.255 173.089 128.731 174.526C130.207 175.963 132.208 176.77 134.296 176.77H223.137C224.171 176.77 225.194 176.572 226.149 176.187C227.104 175.802 227.971 175.237 228.702 174.526C229.433 173.814 230.013 172.97 230.408 172.04C230.804 171.11 231.007 170.114 231.007 169.108V126.962C231.007 125.956 230.804 124.959 230.408 124.03C230.013 123.1 229.433 122.255 228.702 121.544C227.971 120.832 227.104 120.268 226.149 119.883C225.194 119.498 224.171 119.299 223.137 119.299ZM132.097 124.526C132.273 124.495 136.433 123.806 139.878 125.824C143.322 127.842 144.646 131.744 144.7 131.909L144.84 132.33L144.393 132.407C143.755 132.504 143.11 132.55 142.465 132.545C140.9 132.545 138.633 132.293 136.612 131.109C133.168 129.091 131.844 125.189 131.79 125.024L131.65 124.604L132.097 124.526ZM151.383 163.656H135.537C134.381 163.656 133.273 163.209 132.456 162.413C131.639 161.618 131.179 160.538 131.179 159.413C131.179 158.288 131.639 157.209 132.456 156.413C133.273 155.617 134.381 155.17 135.537 155.17H151.383C152.538 155.17 153.647 155.617 154.464 156.413C155.281 157.209 155.74 158.288 155.74 159.413C155.74 160.538 155.281 161.618 154.464 162.413C153.647 163.209 152.538 163.656 151.383 163.656ZM223.48 162.885C223.477 164.111 222.975 165.286 222.084 166.153C221.193 167.021 219.986 167.509 218.727 167.513H206.842C205.583 167.509 204.376 167.021 203.485 166.153C202.594 165.286 202.092 164.111 202.089 162.885V155.942C202.092 154.715 202.594 153.54 203.485 152.673C204.376 151.806 205.583 151.317 206.842 151.313H218.727C219.986 151.317 221.193 151.806 222.084 152.673C222.975 153.54 223.477 154.715 223.48 155.942L223.48 162.885Z" fill="#D0CDE1"/>
<path d="M210.607 161.535H205.457C205.089 161.535 204.736 161.677 204.476 161.93C204.216 162.183 204.07 162.527 204.07 162.885C204.07 163.243 204.216 163.586 204.476 163.839C204.736 164.092 205.089 164.235 205.457 164.235H210.607C210.974 164.235 211.327 164.092 211.587 163.839C211.847 163.586 211.993 163.243 211.993 162.885C211.993 162.527 211.847 162.183 211.587 161.93C211.327 161.677 210.974 161.535 210.607 161.535ZM210.607 163.463H205.457C205.379 163.463 205.301 163.449 205.229 163.42C205.157 163.391 205.091 163.348 205.036 163.294C204.98 163.24 204.937 163.177 204.907 163.106C204.877 163.036 204.861 162.961 204.861 162.885C204.861 162.809 204.877 162.733 204.907 162.663C204.937 162.593 204.98 162.529 205.036 162.475C205.091 162.421 205.157 162.379 205.229 162.35C205.301 162.321 205.379 162.306 205.457 162.306H210.607C210.685 162.306 210.762 162.321 210.834 162.35C210.907 162.379 210.972 162.421 211.028 162.475C211.083 162.529 211.127 162.593 211.157 162.663C211.187 162.733 211.202 162.809 211.202 162.885C211.202 162.961 211.187 163.036 211.157 163.106C211.127 163.177 211.083 163.24 211.028 163.294C210.972 163.348 210.907 163.391 210.834 163.42C210.762 163.449 210.685 163.463 210.607 163.463Z" fill="#D0CDE1"/>
<path d="M220.113 161.535H214.963C214.781 161.534 214.6 161.569 214.432 161.637C214.263 161.705 214.11 161.804 213.981 161.929C213.852 162.055 213.75 162.204 213.68 162.368C213.61 162.531 213.574 162.707 213.574 162.885C213.574 163.062 213.61 163.238 213.68 163.402C213.75 163.566 213.852 163.715 213.981 163.84C214.11 163.965 214.263 164.065 214.432 164.132C214.6 164.2 214.781 164.235 214.963 164.235H220.113C220.48 164.235 220.833 164.092 221.093 163.839C221.353 163.586 221.499 163.243 221.499 162.885C221.499 162.527 221.353 162.183 221.093 161.93C220.833 161.677 220.48 161.535 220.113 161.535ZM220.113 163.463H214.963C214.885 163.463 214.807 163.449 214.735 163.42C214.663 163.391 214.597 163.348 214.542 163.294C214.486 163.241 214.443 163.177 214.413 163.106C214.383 163.036 214.367 162.961 214.367 162.885C214.367 162.809 214.383 162.733 214.413 162.663C214.443 162.593 214.486 162.529 214.542 162.475C214.597 162.421 214.663 162.379 214.735 162.35C214.807 162.321 214.885 162.306 214.963 162.306H220.113C220.27 162.306 220.421 162.368 220.532 162.476C220.643 162.585 220.705 162.731 220.705 162.885C220.705 163.038 220.643 163.185 220.532 163.293C220.421 163.402 220.27 163.463 220.113 163.463Z" fill="#D0CDE1"/>
<path d="M210.607 158.063H205.457C205.089 158.063 204.736 158.205 204.476 158.458C204.216 158.712 204.07 159.055 204.07 159.413C204.07 159.771 204.216 160.114 204.476 160.368C204.736 160.621 205.089 160.763 205.457 160.763H210.607C210.789 160.763 210.969 160.729 211.138 160.661C211.306 160.593 211.459 160.494 211.588 160.368C211.717 160.243 211.82 160.094 211.89 159.93C211.959 159.766 211.995 159.59 211.995 159.413C211.995 159.236 211.959 159.06 211.89 158.896C211.82 158.732 211.717 158.583 211.588 158.458C211.459 158.332 211.306 158.233 211.138 158.165C210.969 158.097 210.789 158.063 210.607 158.063ZM210.607 159.992H205.457C205.299 159.992 205.148 159.931 205.037 159.822C204.925 159.714 204.863 159.566 204.863 159.413C204.863 159.26 204.925 159.112 205.037 159.004C205.148 158.895 205.299 158.834 205.457 158.834H210.607C210.764 158.834 210.915 158.895 211.027 159.004C211.138 159.112 211.201 159.26 211.201 159.413C211.201 159.566 211.138 159.714 211.027 159.822C210.915 159.931 210.764 159.992 210.607 159.992Z" fill="#D0CDE1"/>
<path d="M220.113 158.063H214.963C214.781 158.063 214.6 158.097 214.432 158.165C214.263 158.233 214.11 158.332 213.981 158.458C213.852 158.583 213.75 158.732 213.68 158.896C213.61 159.06 213.574 159.236 213.574 159.413C213.574 159.59 213.61 159.766 213.68 159.93C213.75 160.094 213.852 160.243 213.981 160.368C214.11 160.494 214.263 160.593 214.432 160.661C214.6 160.729 214.781 160.763 214.963 160.763H220.113C220.48 160.763 220.833 160.621 221.093 160.368C221.353 160.114 221.499 159.771 221.499 159.413C221.499 159.055 221.353 158.712 221.093 158.458C220.833 158.205 220.48 158.063 220.113 158.063ZM220.113 159.992H214.963C214.805 159.992 214.654 159.931 214.543 159.822C214.431 159.714 214.369 159.566 214.369 159.413C214.369 159.26 214.431 159.112 214.543 159.004C214.654 158.895 214.805 158.834 214.963 158.834H220.113C220.27 158.834 220.421 158.895 220.533 159.004C220.644 159.112 220.707 159.26 220.707 159.413C220.707 159.566 220.644 159.714 220.533 159.822C220.421 159.931 220.27 159.992 220.113 159.992Z" fill="#D0CDE1"/>
<path d="M210.607 154.592H205.457C205.089 154.592 204.736 154.734 204.476 154.987C204.216 155.24 204.07 155.584 204.07 155.942C204.07 156.3 204.216 156.643 204.476 156.896C204.736 157.15 205.089 157.292 205.457 157.292H210.607C210.974 157.292 211.327 157.15 211.587 156.896C211.847 156.643 211.993 156.3 211.993 155.942C211.993 155.584 211.847 155.24 211.587 154.987C211.327 154.734 210.974 154.592 210.607 154.592ZM210.607 156.52H205.457C205.299 156.52 205.148 156.459 205.037 156.351C204.925 156.242 204.863 156.095 204.863 155.942C204.863 155.788 204.925 155.641 205.037 155.533C205.148 155.424 205.299 155.363 205.457 155.363H210.607C210.764 155.363 210.915 155.424 211.027 155.533C211.138 155.641 211.201 155.788 211.201 155.942C211.201 156.095 211.138 156.242 211.027 156.351C210.915 156.459 210.764 156.52 210.607 156.52Z" fill="#D0CDE1"/>
<path d="M220.113 154.592H214.963C214.781 154.592 214.6 154.626 214.432 154.694C214.263 154.762 214.11 154.861 213.981 154.986C213.852 155.112 213.75 155.261 213.68 155.425C213.61 155.589 213.574 155.764 213.574 155.942C213.574 156.119 213.61 156.295 213.68 156.459C213.75 156.623 213.852 156.772 213.981 156.897C214.11 157.022 214.263 157.122 214.432 157.19C214.6 157.257 214.781 157.292 214.963 157.292H220.113C220.48 157.291 220.832 157.149 221.092 156.896C221.351 156.643 221.497 156.299 221.497 155.942C221.497 155.584 221.351 155.241 221.092 154.988C220.832 154.735 220.48 154.592 220.113 154.592ZM220.113 156.52H214.963C214.805 156.52 214.654 156.459 214.543 156.351C214.431 156.242 214.369 156.095 214.369 155.942C214.369 155.788 214.431 155.641 214.543 155.533C214.654 155.424 214.805 155.363 214.963 155.363H220.113C220.27 155.363 220.421 155.424 220.533 155.533C220.644 155.641 220.707 155.788 220.707 155.942C220.707 156.095 220.644 156.242 220.533 156.351C220.421 156.459 220.27 156.52 220.113 156.52Z" fill="#D0CDE1"/>
<path d="M195.125 109.819L192.829 117.116C192.829 117.116 192.242 130.72 184.552 128.848C176.863 126.976 186.795 111.066 186.795 111.066L189.038 107.635L195.125 109.819Z" fill="#A0616A"/>
<path d="M151.551 109.819L149.254 117.116C149.254 117.116 148.668 130.72 140.978 128.848C133.288 126.976 143.221 111.066 143.221 111.066L145.464 107.635L151.551 109.819Z" fill="#A0616A"/>
<path d="M193.525 47.738C193.525 47.738 198.652 46.4902 200.254 54.9132C201.856 63.3362 203.778 87.3573 203.778 87.3573L196.088 112.626C196.088 112.626 188.399 108.571 186.797 109.195L192.848 87.2572L187.758 64.896C187.758 64.896 192.244 47.738 193.525 47.738Z" fill="#D0CDE1"/>
<path opacity="0.15" d="M186.07 65.3228L192.799 87.1601L186.07 109.309L189.915 87.1601L186.07 65.3228Z" fill="black"/>
<path d="M155.398 64.896L143.863 109.195C143.863 109.195 149.947 111.15 152.19 112.71L155.398 64.896Z" fill="#D0CDE1"/>
<path d="M34.3993 176.223C52.0945 176.223 66.4392 162.256 66.4392 145.026C66.4392 127.797 52.0945 113.83 34.3993 113.83C16.7041 113.83 2.35938 127.797 2.35938 145.026C2.35938 162.256 16.7041 176.223 34.3993 176.223Z" fill="#3F3D56"/>
<path opacity="0.1" d="M34.3981 171.855C49.6159 171.855 61.9524 159.844 61.9524 145.027C61.9524 130.209 49.6159 118.198 34.3981 118.198C19.1802 118.198 6.84375 130.209 6.84375 145.027C6.84375 159.844 19.1802 171.855 34.3981 171.855Z" fill="black"/>
<path d="M33.0783 160.858V156.953C31.051 156.914 28.9538 156.218 27.7305 155.252L28.5693 152.661C30.023 153.722 31.786 154.304 33.6026 154.324C36.0843 154.324 37.7621 152.739 37.7621 150.535C37.7621 148.408 36.3988 147.094 33.8123 145.934C30.247 144.388 28.045 142.609 28.045 139.246C28.045 136.037 30.1073 133.601 33.323 133.021V129.116H35.4901V132.866C37.106 132.888 38.6822 133.357 40.0341 134.22L39.1601 136.771C37.8636 135.907 36.3272 135.449 34.7561 135.457C32.0647 135.457 31.051 137.235 31.051 138.782C31.051 140.792 32.3443 141.797 35.3853 143.189C38.9854 144.813 40.8031 146.823 40.8031 150.264C40.8031 153.319 38.8806 156.18 35.2803 156.837V160.858H33.0783Z" fill="black"/>
<path d="M68.245 208.482C45.6218 211.767 22.6233 211.767 0 208.482V200.995C22.6473 203.948 45.5978 203.948 68.245 200.995V208.482Z" fill="#3F3D56"/>
<path d="M68.245 196.94C45.6218 200.225 22.6233 200.225 0 196.94V189.453C22.6473 192.406 45.5978 192.406 68.245 189.453V196.94Z" fill="#3F3D56"/>
<path d="M68.245 185.397C45.6218 188.682 22.6233 188.682 0 185.397V177.91C22.6473 180.863 45.5978 180.863 68.245 177.91V185.397Z" fill="#3F3D56"/>
</g>
<defs>
<clipPath id="clip0_627_223">
<rect width="289" height="219" fill="white"/>
</clipPath>
</defs>
</svg>
