<svg width="569" height="411" viewBox="0 0 569 411" fill="none" xmlns="http://www.w3.org/2000/svg">
<g clip-path="url(#clip0_498_281)">
<path d="M354.621 410.781C360.222 398.682 365.819 386.403 368.25 373.294C370.681 360.184 369.661 345.956 362.698 334.586C355.736 323.215 342.028 315.504 328.945 318.075C318.201 320.186 309.573 328.649 304.521 338.365C299.469 348.081 297.443 359.039 295.478 369.813C294.843 357.574 294.17 345.137 290.105 333.576C286.039 322.014 278.034 311.24 266.625 306.766C255.216 302.292 240.374 305.811 234.361 316.489C225.889 331.534 237.122 352.637 227.381 366.892C225.71 352.593 210.758 341.296 196.547 343.595C182.336 345.895 171.709 361.331 174.633 375.428C176.372 383.816 182.095 390.95 188.937 396.104C195.778 401.259 203.736 407.233 211.607 410.611L354.621 410.781Z" fill="#F2F2F2"/>
<path d="M182.094 353.698C193.383 357.644 204.775 361.634 215.08 367.804C224.317 373.333 232.541 380.777 237.736 390.31C240.582 395.424 242.272 401.101 242.686 406.939C242.761 408.16 244.671 408.169 244.596 406.939C243.928 396.067 238.63 386.117 231.293 378.248C223.25 369.621 212.826 363.729 202.064 359.157C195.683 356.447 189.144 354.143 182.602 351.856C181.44 351.45 180.94 353.294 182.094 353.698V353.698Z" fill="white"/>
<path d="M247.204 308.662C254.14 320.217 259.693 332.546 263.751 345.398C267.817 358.244 270.379 371.519 271.384 384.956C271.94 392.478 272 400.029 271.565 407.559C271.494 408.787 273.404 408.783 273.475 407.559C274.245 393.983 273.424 380.363 271.027 366.978C268.634 353.594 264.701 340.532 259.306 328.052C256.278 321.043 252.786 314.243 248.853 307.698C248.721 307.488 248.513 307.338 248.272 307.28C248.031 307.221 247.777 307.258 247.563 307.383C247.349 307.508 247.192 307.711 247.125 307.95C247.058 308.188 247.087 308.444 247.204 308.662V308.662Z" fill="white"/>
<path d="M340.673 319.632C330.863 341.675 323.96 364.899 320.136 388.721C319.062 395.412 318.231 402.136 317.643 408.893C317.536 410.118 319.447 410.11 319.553 408.893C321.632 385.125 326.769 361.723 334.836 339.269C337.103 332.956 339.598 326.731 342.322 320.596C342.816 319.483 341.171 318.51 340.673 319.632V319.632Z" fill="white"/>
<path d="M67.5197 409.353C47.9548 404.261 30.6661 392.746 18.425 376.656C6.18385 360.565 -0.300724 340.83 0.0107168 320.615C0.0883072 315.578 0.617862 310.435 2.73505 305.865C4.85223 301.294 8.78488 297.34 13.7042 296.257C19.0728 295.075 24.738 297.492 28.7389 301.262C32.7398 305.032 35.3632 310.006 37.7768 314.945C52.3144 344.696 63.3598 376.619 67.4952 409.473L67.5197 409.353Z" fill="#F2F2F2"/>
<path d="M11.2673 297.25L21.4561 320.401L31.6449 343.553C34.8717 350.885 38.0924 358.22 41.4277 365.504C44.7336 372.723 48.1529 379.893 51.8006 386.947C55.4431 393.991 59.3144 400.92 63.5165 407.646C64.0398 408.484 64.5682 409.318 65.1018 410.149C65.471 410.725 66.3941 410.191 66.0222 409.611C61.7395 402.935 57.7933 396.048 54.0921 389.034C50.3869 382.012 46.9238 374.865 43.5887 367.66C40.2358 360.418 37.0118 353.116 33.7963 345.811C30.4118 338.123 27.0278 330.434 23.6445 322.744L13.4556 299.593L12.1877 296.712C11.912 296.085 10.9932 296.627 11.2672 297.25L11.2673 297.25Z" fill="white"/>
<path d="M63.2691 409.514C51.7366 412.152 39.6524 410.842 28.9534 405.793C18.2545 400.744 9.56049 392.248 4.26507 381.668C2.94569 379.033 1.83243 376.22 1.69777 373.275C1.5631 370.33 2.53767 367.216 4.79932 365.326C7.26758 363.262 10.8611 362.987 13.956 363.865C17.051 364.742 19.7557 366.616 22.3422 368.529C37.921 380.05 52.273 393.642 63.2888 409.583L63.2691 409.514Z" fill="#F2F2F2"/>
<path d="M3.80214 366.498L15.3416 375.767L26.881 385.036C30.5356 387.972 34.1878 390.911 37.8856 393.792C41.551 396.648 45.2616 399.447 49.0596 402.124C52.8522 404.798 56.7325 407.35 60.73 409.708C61.2277 410.002 61.7273 410.292 62.2287 410.58C62.5758 410.779 62.9109 410.252 62.5614 410.052C58.5356 407.742 54.6277 405.232 50.8126 402.589C46.9934 399.944 43.2661 397.168 39.5898 394.328C35.8939 391.473 32.249 388.553 28.6078 385.628C24.775 382.55 20.9425 379.472 17.1103 376.393L5.57081 367.124L4.13479 365.971C3.82251 365.72 3.49179 366.249 3.80215 366.498H3.80214Z" fill="white"/>
<path d="M554.422 411H27.7992C27.6995 411 27.6007 410.981 27.5085 410.943C27.4163 410.905 27.3324 410.849 27.2618 410.779C27.1912 410.708 27.1352 410.625 27.097 410.532C27.0587 410.44 27.0391 410.342 27.0391 410.242C27.0391 410.142 27.0587 410.043 27.097 409.951C27.1352 409.859 27.1912 409.776 27.2618 409.705C27.3324 409.635 27.4163 409.579 27.5085 409.541C27.6007 409.503 27.6995 409.484 27.7992 409.484H554.422C554.623 409.484 554.815 409.564 554.958 409.706C555.1 409.848 555.18 410.041 555.18 410.242C555.18 410.443 555.1 410.636 554.958 410.778C554.815 410.92 554.623 411 554.422 411Z" fill="#3F3D56"/>
<path d="M540.589 335.058H504.935C504.935 335.48 504.767 335.885 504.469 336.183C504.17 336.482 503.766 336.649 503.344 336.65H468.346C467.851 337.022 467.401 337.449 467.003 337.923C465.806 339.35 465.152 341.153 465.156 343.016V344.289C465.157 346.399 465.996 348.423 467.488 349.915C468.98 351.407 471.003 352.246 473.113 352.246H540.589C542.698 352.245 544.721 351.406 546.213 349.914C547.705 348.422 548.544 346.399 548.546 344.289V343.016C548.543 340.906 547.703 338.884 546.212 337.392C544.72 335.9 542.698 335.061 540.589 335.058V335.058Z" fill="#3F3D56"/>
<path d="M511.303 351.93H503.027V410.498H511.303V351.93Z" fill="#3F3D56"/>
<path d="M534.855 410.207C534.855 411.101 522.315 410.553 506.847 410.553C491.378 410.553 478.838 411.101 478.838 410.207C478.838 409.313 491.378 402.222 506.847 402.222C522.315 402.222 534.855 409.313 534.855 410.207Z" fill="#3F3D56"/>
<path d="M539.029 336.892L537.641 328.208C537.465 327.114 536.863 326.134 535.965 325.484C535.068 324.833 533.949 324.565 532.854 324.739L518.538 327.024L494.018 330.939L486.042 332.213H503.344C503.766 332.213 504.17 332.38 504.469 332.679C504.767 332.977 504.935 333.382 504.935 333.804V335.058C504.935 335.48 504.767 335.885 504.469 336.183C504.17 336.482 503.766 336.649 503.344 336.65H459.313C458.698 336.937 458.166 337.375 457.766 337.923C457.427 338.368 457.183 338.878 457.047 339.421C456.911 339.963 456.887 340.528 456.977 341.08L457.371 343.55L457.849 346.549L458.364 349.77C458.54 350.862 459.141 351.839 460.036 352.488C460.93 353.138 462.046 353.405 463.138 353.233L474.514 351.419L507.322 346.18L535.56 341.672C536.652 341.495 537.629 340.892 538.279 339.997C538.929 339.101 539.199 337.985 539.029 336.892Z" fill="black"/>
<path d="M473.642 337.923C473.223 337.367 472.669 336.929 472.031 336.65H459.86C459.22 336.927 458.663 337.365 458.243 337.923C457.677 338.648 457.37 339.543 457.371 340.463V388.978C457.373 390.084 457.813 391.143 458.594 391.925C459.376 392.707 460.435 393.146 461.541 393.148H470.344C471.45 393.146 472.509 392.707 473.291 391.925C474.072 391.143 474.512 390.084 474.514 388.978V340.463C474.514 339.543 474.207 338.649 473.642 337.923V337.923Z" fill="black"/>
<path d="M500.134 255.292L500.052 255.184L494.59 248.455C494.299 248.094 493.948 247.786 493.552 247.544C493.342 247.402 493.116 247.287 492.878 247.201C492.529 247.061 492.163 246.971 491.789 246.933C491.539 246.907 491.288 246.903 491.038 246.921C491.033 246.921 491.028 246.923 491.025 246.927C490.181 246.989 489.377 247.309 488.721 247.844L477.511 256.934L463.106 268.622L441.609 286.065L440.043 287.338H467.243L468.815 286.065L474.016 281.845L474.385 281.552L499.504 261.174L499.523 261.161C500.04 260.745 500.449 260.21 500.714 259.602C500.888 259.203 501 258.78 501.045 258.348C501.103 257.803 501.052 257.253 500.896 256.729C500.739 256.204 500.481 255.716 500.134 255.292Z" fill="black"/>
<path d="M500.053 255.184C499.701 253.468 498.922 251.87 497.786 250.537C496.655 249.193 495.197 248.163 493.553 247.545C493.298 247.449 493.05 247.36 492.796 247.29C492.221 247.119 491.634 246.995 491.039 246.921C491.034 246.921 491.029 246.923 491.026 246.927C488.348 246.618 485.654 247.362 483.515 249.002L464.125 263.823C463.713 264.191 463.38 264.638 463.145 265.138C462.91 265.638 462.778 266.18 462.757 266.732C462.726 267.381 462.846 268.028 463.107 268.623C463.17 268.756 463.24 268.89 463.317 269.017C463.465 269.276 463.645 269.515 463.851 269.73L466.958 273.219L474.183 281.323L474.386 281.552L474.851 282.08C475.221 282.486 475.667 282.814 476.164 283.047C476.661 283.279 477.199 283.412 477.747 283.436C478.295 283.46 478.843 283.376 479.359 283.188C479.874 283 480.348 282.713 480.752 282.341L497.474 264.376C498.343 263.444 499.031 262.358 499.505 261.174C500.269 259.274 500.459 257.191 500.053 255.184Z" fill="#2F2E41"/>
<path d="M507.445 232.132C525.066 232.132 539.35 217.846 539.35 200.224C539.35 182.602 525.066 168.316 507.445 168.316C489.824 168.316 475.539 182.602 475.539 200.224C475.539 217.846 489.824 232.132 507.445 232.132Z" fill="black"/>
<path d="M519.411 332.499L518.538 327.024L518.023 323.809C517.847 322.717 517.245 321.738 516.349 321.089C515.452 320.44 514.335 320.173 513.242 320.346L490.052 324.045L483.763 325.051L482.49 325.254V332.213H503.344C503.766 332.213 504.17 332.38 504.469 332.679C504.767 332.977 504.935 333.382 504.935 333.804V335.058C504.935 335.48 504.767 335.885 504.469 336.183C504.17 336.482 503.766 336.649 503.344 336.65H437.352C437.352 336.662 437.358 336.675 437.358 336.688L437.753 339.158L438.746 345.371C438.921 346.463 439.522 347.44 440.417 348.09C441.312 348.739 442.428 349.007 443.52 348.834L454.895 347.02L457.371 346.625L457.849 346.549L474.514 343.888L485.851 342.074L503.84 339.202L504.108 339.158L515.941 337.274C517.033 337.099 518.012 336.498 518.662 335.603C519.312 334.708 519.582 333.592 519.411 332.499V332.499Z" fill="black"/>
<path d="M550.869 309.085C550.869 335.097 548.227 350.655 507.487 346.199C507.43 346.192 507.379 346.186 507.322 346.18C500.056 345.462 492.869 344.088 485.851 342.074C482.203 341.008 478.659 339.619 475.258 337.923C474.457 337.516 473.686 337.089 472.929 336.65H503.344C503.766 336.65 504.17 336.482 504.469 336.183C504.767 335.885 504.935 335.48 504.935 335.058V333.804C504.935 333.382 504.767 332.977 504.469 332.679C504.17 332.381 503.766 332.213 503.344 332.213H482.49V292.005C482.488 290.768 481.996 289.582 481.121 288.707C480.247 287.833 479.061 287.34 477.824 287.339H460.859C461.006 286.918 461.152 286.492 461.311 286.065C462.903 281.661 464.789 277.369 466.958 273.219C469.928 267.455 473.464 262 477.512 256.935C480.331 253.405 483.495 250.165 486.958 247.265C493.343 241.994 500.294 238.734 507.348 238.734C533.357 238.734 550.869 283.073 550.869 309.085Z" fill="#2F2E41"/>
<path d="M508.115 212.05L508.148 210.858C505.93 210.796 503.975 210.657 502.505 209.584C502.089 209.262 501.746 208.854 501.501 208.388C501.256 207.923 501.115 207.409 501.086 206.884C501.06 206.563 501.108 206.24 501.228 205.941C501.347 205.641 501.533 205.374 501.773 205.158C502.748 204.334 504.318 204.601 505.462 205.126L506.449 205.578L504.557 191.752L503.375 191.914L504.985 203.675C504.326 203.43 503.617 203.355 502.921 203.455C502.226 203.555 501.566 203.827 501.003 204.248C500.624 204.578 500.327 204.992 500.135 205.457C499.943 205.921 499.86 206.424 499.894 206.926C499.929 207.632 500.118 208.322 500.447 208.947C500.777 209.573 501.239 210.119 501.802 210.547C503.69 211.926 506.144 211.995 508.115 212.05Z" fill="#2F2E41"/>
<path d="M497.533 192.928H491.111V194.12H497.533V192.928Z" fill="#2F2E41"/>
<path d="M517.802 192.928H511.381V194.12H517.802V192.928Z" fill="#2F2E41"/>
<path d="M532.909 191.457C530.427 187.722 526.061 186.138 521.755 185.753C516.909 185.32 512.226 186.254 507.495 187.162C502.288 188.161 496.776 189.096 491.529 187.833C489.208 187.296 487.039 186.239 485.186 184.742C483.333 183.245 481.843 181.346 480.831 179.189C478.91 174.982 478.496 170.241 479.658 165.764C480.888 161.003 483.94 156.813 487.64 153.649C495.191 147.19 505.41 144.288 515.239 144.561C525.03 144.814 534.494 148.142 542.289 154.073C550.097 160.219 555.591 168.83 557.875 178.5C560.264 188.092 559.486 198.198 555.657 207.311C553.507 212.301 550.396 216.799 547.996 221.663C545.761 226.192 544.04 231.457 545.43 236.509C546.65 240.941 550.233 244.879 554.73 246.083C556.776 246.62 558.941 246.478 560.9 245.678C562.858 244.878 564.504 243.464 565.59 241.649C567.838 238.104 567.892 233.46 564.516 230.598C563.665 229.864 562.674 229.311 561.603 228.973C560.531 228.634 559.402 228.517 558.284 228.629C557.166 228.74 556.082 229.078 555.099 229.622C554.115 230.165 553.253 230.903 552.564 231.79C551.194 233.569 550.581 235.816 550.858 238.044C551.024 239.17 549.301 239.656 549.133 238.519C548.73 236.163 549.177 233.741 550.393 231.683C551.61 229.626 553.518 228.067 555.776 227.285C558.034 226.503 560.497 226.548 562.726 227.412C564.954 228.277 566.803 229.904 567.944 232.005C569.979 235.832 568.881 240.449 566.297 243.721C564.964 245.463 563.157 246.785 561.092 247.527C559.027 248.27 556.792 248.402 554.655 247.907C549.951 246.821 546.103 243.082 544.294 238.689C542.279 233.798 543.202 228.34 545.166 223.594C547.289 218.463 550.441 213.862 552.934 208.918C555.192 204.45 556.628 199.613 557.175 194.637C558.27 184.646 556.003 174.574 550.731 166.016C545.358 157.59 537.157 151.357 527.601 148.436C518.115 145.387 507.873 145.658 498.561 149.204C489.473 152.785 480.698 160.588 480.804 171.069C480.849 175.546 482.51 180.112 485.94 183.098C490.038 186.667 495.744 186.972 500.895 186.415C506.079 185.855 511.114 184.341 516.32 183.954C520.849 183.618 525.735 183.968 529.778 186.218C531.661 187.268 533.265 188.755 534.453 190.555C535.092 191.516 533.543 192.413 532.909 191.457V191.457Z" fill="#2F2E41"/>
<path d="M526.413 264.415L523.886 262.658L519.181 259.392C518.272 258.763 517.15 258.52 516.061 258.717C514.973 258.914 514.007 259.534 513.376 260.442L498.041 282.513L483.763 303.063L482.49 304.896V332.213H482.605C483.597 332.114 484.521 331.662 485.208 330.94C485.356 330.788 485.49 330.624 485.609 330.449L490.053 324.045L501.033 308.238L512.415 291.865L513.497 290.305L527.45 270.22C527.526 270.114 527.596 270.003 527.66 269.889C527.724 269.78 527.781 269.668 527.832 269.552C528.232 268.665 528.31 267.665 528.05 266.727C527.791 265.789 527.212 264.971 526.413 264.415V264.415Z" fill="black"/>
<path d="M526.458 255.68C526.008 255.385 525.535 255.125 525.044 254.904C522.87 253.907 520.418 253.689 518.102 254.288C515.786 254.886 513.746 256.263 512.326 258.189L497.838 277.834C497.547 278.302 497.352 278.823 497.264 279.367C497.176 279.911 497.198 280.466 497.327 281.002C497.456 281.538 497.69 282.042 498.016 282.486C498.342 282.93 498.753 283.305 499.225 283.589L512.415 291.865L512.58 291.967L513.242 292.38C514.189 292.953 515.324 293.127 516.399 292.864C517.474 292.602 518.401 291.924 518.978 290.98L529.207 270.672L529.379 270.335L529.386 270.329L530.016 269.062C531.165 266.783 531.438 264.161 530.782 261.694C530.126 259.227 528.587 257.087 526.458 255.68Z" fill="#2F2E41"/>
<path d="M437.752 336.65V384.579C437.754 385.685 438.193 386.744 438.975 387.526C439.756 388.308 440.816 388.747 441.921 388.749H450.725C451.83 388.748 452.89 388.308 453.672 387.526C454.453 386.744 454.893 385.685 454.895 384.579V336.65H437.752Z" fill="black"/>
<path d="M503.343 330.94H483.763V292.005C483.761 290.43 483.135 288.92 482.021 287.807C480.908 286.693 479.398 286.067 477.824 286.065H405.211C403.635 286.066 402.124 286.692 401.01 287.805C399.895 288.919 399.268 290.429 399.266 292.005V331.984C399.268 333.559 399.895 335.07 401.01 336.183C402.124 337.297 403.635 337.923 405.211 337.923H503.343C503.445 337.923 503.54 337.917 503.636 337.91C503.725 337.904 503.814 337.885 503.903 337.872C504.553 337.741 505.137 337.389 505.557 336.876C505.977 336.363 506.207 335.721 506.208 335.058V333.804C506.208 333.044 505.906 332.316 505.369 331.779C504.831 331.241 504.103 330.94 503.343 330.94ZM503.343 336.65H405.211C403.973 336.649 402.786 336.158 401.91 335.283C401.034 334.408 400.541 333.222 400.539 331.984V292.005C400.541 290.767 401.034 289.58 401.91 288.706C402.786 287.831 403.973 287.339 405.211 287.339H477.824C479.06 287.34 480.246 287.833 481.121 288.707C481.996 289.582 482.488 290.768 482.49 292.005V332.213H503.343C503.765 332.213 504.17 332.381 504.468 332.679C504.767 332.977 504.934 333.382 504.934 333.804V335.058C504.934 335.48 504.767 335.885 504.468 336.183C504.17 336.482 503.765 336.65 503.343 336.65V336.65Z" fill="#3F3D56"/>
<path d="M441.514 316.89C444.218 316.89 446.41 314.698 446.41 311.995C446.41 309.291 444.218 307.099 441.514 307.099C438.811 307.099 436.619 309.291 436.619 311.995C436.619 314.698 438.811 316.89 441.514 316.89Z" fill="black"/>
<path d="M77.658 230.03C96.4733 230.03 111.726 214.776 111.726 195.959C111.726 177.143 96.4733 161.889 77.658 161.889C58.8427 161.889 43.5898 177.143 43.5898 195.959C43.5898 214.776 58.8427 230.03 77.658 230.03Z" fill="black"/>
<path d="M71.0175 324.128H61.622C60.525 324.129 59.4732 324.565 58.6974 325.341C57.9217 326.117 57.4854 327.169 57.4844 328.266V406.574C57.4854 407.671 57.9217 408.723 58.6974 409.499C59.4731 410.275 60.525 410.711 61.622 410.712H71.0175C72.1145 410.711 73.1664 410.275 73.9421 409.499C74.7178 408.723 75.1541 407.671 75.1551 406.574V328.266C75.1541 327.169 74.7178 326.117 73.9421 325.341C73.1664 324.565 72.1145 324.129 71.0175 324.128V324.128Z" fill="#2F2E41"/>
<path d="M90.871 324.128H81.4755C80.3785 324.129 79.3267 324.565 78.5509 325.341C77.7752 326.117 77.3389 327.169 77.3379 328.266V406.574C77.3389 407.671 77.7752 408.723 78.5509 409.499C79.3267 410.275 80.3785 410.711 81.4755 410.712H90.871C91.4144 410.712 91.9525 410.605 92.4545 410.397C92.9565 410.189 93.4126 409.884 93.7968 409.5C94.1811 409.116 94.4858 408.66 94.6938 408.158C94.9017 407.656 95.0087 407.118 95.0087 406.574V328.266C95.0087 327.722 94.9017 327.184 94.6938 326.682C94.4858 326.18 94.1811 325.724 93.7968 325.34C93.4126 324.956 92.9565 324.651 92.4545 324.443C91.9524 324.235 91.4144 324.128 90.871 324.128V324.128Z" fill="#2F2E41"/>
<path d="M97.6748 247.895C94.3823 243.639 89.8419 240.52 84.6889 238.972C79.5359 237.425 74.0281 237.527 68.9361 239.265C63.8441 241.003 59.4227 244.289 56.2904 248.663C53.1581 253.038 51.4717 258.283 51.467 263.663V333.015C51.4645 333.226 51.4816 333.437 51.518 333.645C51.6691 334.706 52.1977 335.677 53.0068 336.38C53.8159 337.083 54.8513 337.47 55.923 337.471H98.6173C99.7983 337.469 100.93 336.998 101.765 336.163C102.601 335.328 103.071 334.196 103.073 333.015V263.663C103.081 257.953 101.181 252.403 97.6748 247.895V247.895Z" fill="#2F2E41"/>
<path d="M106.428 211.02L106.393 209.747C108.761 209.681 110.849 209.533 112.418 208.386C112.863 208.043 113.229 207.607 113.49 207.11C113.752 206.613 113.903 206.065 113.934 205.503C113.962 205.161 113.91 204.816 113.782 204.496C113.655 204.177 113.456 203.891 113.2 203.661C112.159 202.781 110.483 203.066 109.261 203.626L108.208 204.109L110.228 189.346L111.489 189.519L109.771 202.077C111.431 201.589 112.969 201.799 114.022 202.688C114.426 203.042 114.744 203.483 114.949 203.98C115.155 204.476 115.243 205.013 115.206 205.548C115.169 206.302 114.967 207.039 114.616 207.707C114.264 208.375 113.77 208.958 113.169 209.414C111.153 210.888 108.533 210.961 106.428 211.02Z" fill="#2F2E41"/>
<path d="M102.941 190.602H96.084V191.875H102.941V190.602Z" fill="#2F2E41"/>
<path d="M67.6686 248.875C67.3011 248.474 66.8575 248.149 66.3636 247.921C65.8696 247.693 65.3352 247.565 64.7914 247.545L57.3883 247.239L55.4084 247.156C54.3123 247.112 53.2431 247.503 52.4353 248.245C51.6275 248.988 51.1469 250.02 51.0988 251.116L49.9277 279.33L47.8589 329.361C47.8166 330.405 48.1703 331.426 48.849 332.221C49.5277 333.015 50.4813 333.524 51.5191 333.645C51.621 333.658 51.7164 333.664 51.8184 333.67L57.4837 333.906L61.2076 334.059C61.5059 334.072 61.8047 334.053 62.0988 334.001C62.8765 333.862 63.5985 333.505 64.1803 332.97C64.5817 332.603 64.906 332.159 65.1344 331.665C65.3627 331.171 65.4906 330.637 65.5106 330.093L65.759 324.128L67.586 280.005L68.7572 251.848C68.8029 250.752 68.4113 249.683 67.6686 248.875V248.875Z" fill="black"/>
<path d="M62.2452 242.7C61.4541 242.533 60.6475 242.45 59.8389 242.452C56.7167 242.455 53.7236 243.697 51.5159 245.905C49.3082 248.113 48.0663 251.106 48.0625 254.229V275.873C48.0643 276.559 48.2355 277.233 48.5609 277.836C48.8864 278.439 49.3559 278.952 49.9277 279.33C50.394 279.637 50.9183 279.845 51.4682 279.941C51.7095 279.987 51.9545 280.011 52.2001 280.011H67.4776C67.5139 280.012 67.5502 280.01 67.5861 280.005C68.6637 279.977 69.6879 279.53 70.4405 278.758C71.1931 277.986 71.6146 276.951 71.6152 275.873V254.229C71.6118 251.524 70.6791 248.903 68.9732 246.804C67.2674 244.705 64.892 243.256 62.2452 242.7V242.7Z" fill="#2F2E41"/>
<path d="M143.84 304.342C142.841 303.826 142.057 302.974 141.626 301.936C141.195 300.898 141.145 299.741 141.484 298.67L145.106 287.141L144.05 286.263L116.251 263.262L97.6762 247.895L95.4165 246.023C94.5715 245.323 93.4832 244.988 92.3909 245.091C91.2987 245.193 90.2919 245.726 89.592 246.571L83.6019 253.815C83.2546 254.233 82.9932 254.716 82.8327 255.235C82.6722 255.754 82.6157 256.3 82.6666 256.841C82.7174 257.382 82.8746 257.908 83.129 258.388C83.3834 258.869 83.7301 259.294 84.1493 259.64L103.075 275.3L105.226 277.076L144.483 309.556C145.209 310.159 146.119 310.496 147.063 310.51C148.007 310.523 148.927 310.214 149.671 309.632C149.876 309.472 150.063 309.29 150.231 309.091C150.258 309.065 150.283 309.038 150.307 309.008L151.065 308.092L143.84 304.342Z" fill="black"/>
<path d="M114.915 258.844L98.1672 245.138C96.9706 244.159 95.5927 243.424 94.1122 242.977C92.6317 242.53 91.0776 242.378 89.5386 242.532C87.9997 242.685 86.506 243.14 85.1429 243.871C83.7798 244.601 82.574 245.593 81.5942 246.79C80.6145 247.987 79.88 249.365 79.4328 250.846C78.9856 252.326 78.8344 253.88 78.9877 255.419C79.2975 258.528 80.8292 261.385 83.246 263.364L99.9939 277.07C100.732 277.675 101.656 278.005 102.609 278.006C103.563 278.008 104.487 277.679 105.227 277.077C105.447 276.906 105.646 276.71 105.818 276.491L115.494 264.669C115.837 264.255 116.094 263.777 116.252 263.262C116.49 262.476 116.49 261.637 116.252 260.851C116.014 260.065 115.549 259.367 114.915 258.844V258.844Z" fill="#2F2E41"/>
<path d="M69.1173 201.728C67.3433 198.764 65.9549 195.498 66.6139 191.986C67.2024 188.851 69.4589 186.408 72.7037 186.088C74.6577 185.895 76.6025 186.417 78.511 186.756C80.0754 187.031 81.6652 187.134 83.252 187.063C86.4449 186.918 89.5748 186.125 92.4511 184.731C95.3706 183.365 97.9637 181.389 100.056 178.937C102.148 176.485 103.692 173.613 104.582 170.515C106.518 163.465 105.08 155.46 100.482 149.722L102.078 149.3L99.9999 156.127C99.9594 156.267 99.8877 156.396 99.7902 156.505C99.6927 156.613 99.5719 156.698 99.4369 156.753C99.3019 156.808 99.1562 156.831 99.0108 156.822C98.8654 156.812 98.724 156.77 98.5973 156.698C94.8313 154.318 90.6211 152.729 86.2222 152.025C81.8233 151.322 77.3274 151.52 73.0072 152.606C70.566 153.22 68.2082 154.127 65.9853 155.307C64.9006 155.884 63.9347 154.236 65.0214 153.658C69.1967 151.48 73.7703 150.172 78.4658 149.812C83.1612 149.452 87.8809 150.049 92.3392 151.565C94.8782 152.431 97.3032 153.601 99.5611 155.049L98.1585 155.62L100.236 148.793C100.283 148.633 100.37 148.488 100.488 148.372C100.607 148.256 100.754 148.172 100.915 148.13C101.076 148.088 101.245 148.088 101.405 148.13C101.566 148.172 101.713 148.255 101.832 148.371C103.971 151.084 105.538 154.202 106.44 157.537C107.342 160.872 107.559 164.355 107.078 167.777C106.614 171.149 105.442 174.384 103.64 177.272C101.838 180.159 99.4457 182.633 96.6205 184.531C93.7981 186.436 90.6259 187.763 87.2874 188.434C83.949 189.105 80.5106 189.108 77.1712 188.441C75.3024 188.082 73.183 187.568 71.3492 188.35C70.6842 188.671 70.0979 189.134 69.6321 189.707C69.1663 190.28 68.8324 190.949 68.654 191.665C67.6149 195.187 69.383 198.531 71.1891 201.458L69.1173 201.728Z" fill="#2F2E41"/>
<path d="M193.402 272.264L161.911 254.038C161.127 253.584 160.251 253.313 159.348 253.243C158.445 253.174 157.537 253.308 156.693 253.636C155.848 253.964 155.088 254.478 154.469 255.139C153.85 255.8 153.387 256.592 153.114 257.456L144.05 286.263L140.268 298.288C139.84 299.645 139.905 301.109 140.451 302.423C140.997 303.737 141.99 304.816 143.254 305.469L150.231 309.091L172.994 320.9C173.855 321.348 174.812 321.582 175.782 321.581C176.499 321.579 177.21 321.452 177.883 321.206L177.927 321.186C178.723 320.883 179.445 320.415 180.048 319.814C180.652 319.213 181.122 318.492 181.429 317.698L196.018 279.661C196.538 278.319 196.56 276.835 196.081 275.478C195.601 274.121 194.65 272.98 193.402 272.264V272.264ZM194.828 279.209L180.238 317.246C179.995 317.873 179.623 318.442 179.146 318.916C178.669 319.389 178.098 319.758 177.469 319.996L177.437 320.009C176.813 320.239 176.148 320.337 175.484 320.297C174.82 320.256 174.171 320.078 173.58 319.773L151.064 308.092L143.84 304.342C142.841 303.826 142.057 302.974 141.626 301.936C141.195 300.898 141.145 299.741 141.484 298.67L145.106 287.141L154.324 257.838C154.54 257.157 154.906 256.533 155.396 256.012C155.885 255.491 156.485 255.086 157.151 254.827C157.817 254.569 158.532 254.462 159.245 254.516C159.958 254.57 160.649 254.783 161.269 255.139L192.759 273.365C193.746 273.931 194.497 274.831 194.877 275.903C195.256 276.976 195.239 278.148 194.828 279.209V279.209Z" fill="#3F3D56"/>
<path d="M182.837 284.451C182.518 284.451 182.204 284.37 181.924 284.217L160.918 272.759C160.475 272.515 160.146 272.106 160.004 271.621C159.863 271.136 159.919 270.614 160.161 270.17C160.403 269.727 160.811 269.397 161.296 269.254C161.78 269.11 162.302 269.165 162.746 269.405L183.753 280.864C184.126 281.067 184.42 281.389 184.589 281.778C184.759 282.168 184.794 282.602 184.689 283.014C184.584 283.425 184.345 283.789 184.009 284.05C183.674 284.31 183.261 284.451 182.837 284.451H182.837Z" fill="black"/>
<path d="M179.016 292.727C178.697 292.727 178.384 292.646 178.104 292.493L157.097 281.034C156.654 280.791 156.326 280.382 156.184 279.897C156.042 279.412 156.099 278.89 156.341 278.446C156.583 278.003 156.991 277.673 157.475 277.529C157.96 277.386 158.482 277.441 158.926 277.681L179.933 289.14C180.305 289.343 180.6 289.665 180.769 290.054C180.938 290.443 180.973 290.878 180.868 291.289C180.763 291.701 180.524 292.065 180.189 292.326C179.853 292.586 179.441 292.727 179.016 292.727H179.016Z" fill="black"/>
<path d="M175.835 301.639C175.516 301.639 175.202 301.559 174.922 301.406L153.916 289.947C153.473 289.703 153.144 289.294 153.003 288.809C152.861 288.324 152.917 287.802 153.159 287.359C153.401 286.915 153.809 286.585 154.294 286.442C154.778 286.298 155.3 286.353 155.744 286.593L176.751 298.052C177.124 298.256 177.418 298.577 177.587 298.967C177.757 299.356 177.792 299.79 177.687 300.202C177.582 300.613 177.343 300.978 177.007 301.238C176.672 301.498 176.259 301.639 175.835 301.639H175.835Z" fill="black"/>
<path d="M397.976 121.3H309.667C308.397 121.298 307.18 120.793 306.283 119.896C305.385 118.998 304.88 117.781 304.879 116.512V4.78815C304.88 3.5187 305.385 2.30165 306.283 1.40401C307.18 0.506368 308.397 0.00144396 309.667 0H397.976C399.245 0.00145237 400.462 0.50638 401.36 1.40402C402.257 2.30166 402.762 3.5187 402.764 4.78815V116.512C402.762 117.781 402.257 118.998 401.36 119.896C400.462 120.793 399.245 121.298 397.976 121.3V121.3ZM309.667 1.06404C308.679 1.06514 307.733 1.45786 307.035 2.15603C306.337 2.8542 305.944 3.80079 305.943 4.78815V116.512C305.944 117.499 306.337 118.446 307.035 119.144C307.733 119.842 308.679 120.235 309.667 120.236H397.976C398.963 120.235 399.91 119.842 400.608 119.144C401.306 118.446 401.699 117.499 401.7 116.512V4.78815C401.699 3.80079 401.306 2.8542 400.608 2.15603C399.91 1.45786 398.963 1.06515 397.976 1.06404H309.667Z" fill="#3F3D56"/>
<path d="M346.477 53.7026H327.038C326.404 53.7019 325.795 53.4495 325.346 53.0007C324.898 52.5518 324.645 51.9433 324.645 51.3086V28.3682C324.645 27.7335 324.898 27.1249 325.346 26.6761C325.795 26.2273 326.404 25.9748 327.038 25.9741H346.477C347.112 25.9748 347.72 26.2273 348.169 26.6761C348.618 27.1249 348.87 27.7335 348.871 28.3682V51.3086C348.87 51.9433 348.618 52.5518 348.169 53.0007C347.72 53.4495 347.112 53.7019 346.477 53.7026V53.7026Z" fill="black"/>
<path d="M384.247 64.343H364.808C364.173 64.3423 363.565 64.0899 363.116 63.641C362.667 63.1922 362.415 62.5837 362.414 61.9489V39.0086C362.415 38.3738 362.667 37.7653 363.116 37.3165C363.565 36.8677 364.173 36.6152 364.808 36.6145H384.247C384.881 36.6152 385.49 36.8677 385.939 37.3165C386.387 37.7653 386.64 38.3738 386.64 39.0086V61.9489C386.64 62.5837 386.387 63.1922 385.939 63.641C385.49 64.0899 384.881 64.3423 384.247 64.343Z" fill="#CCCCCC"/>
<path d="M353.924 96.7962H334.486C333.851 96.7954 333.243 96.543 332.794 96.0942C332.345 95.6453 332.093 95.0368 332.092 94.4021V71.4617C332.093 70.827 332.345 70.2184 332.794 69.7696C333.243 69.3208 333.851 69.0683 334.486 69.0676H353.924C354.559 69.0683 355.168 69.3208 355.616 69.7696C356.065 70.2184 356.318 70.827 356.318 71.4617V94.4021C356.318 95.0368 356.065 95.6453 355.616 96.0942C355.168 96.543 354.559 96.7954 353.924 96.7962Z" fill="#FF6584"/>
<path d="M282.784 91.102C282.417 90.2302 281.802 89.4851 281.016 88.959C280.23 88.4329 279.307 88.1488 278.361 88.1418H190.051C188.781 88.1425 187.564 88.6471 186.667 89.5448C185.769 90.4424 185.264 91.6596 185.264 92.9291V204.653C185.264 205.922 185.769 207.139 186.667 208.037C187.564 208.935 188.781 209.439 190.051 209.44H278.361C279.63 209.438 280.846 208.933 281.743 208.036C282.641 207.138 283.146 205.922 283.147 204.653V92.9291C283.15 92.3019 283.026 91.6807 282.784 91.102V91.102ZM282.085 204.653C282.083 205.64 281.69 206.586 280.992 207.285C280.294 207.983 279.348 208.376 278.361 208.377H190.051C189.063 208.377 188.116 207.984 187.418 207.286C186.719 206.587 186.327 205.64 186.327 204.653V92.9291C186.328 91.9418 186.721 90.9953 187.419 90.2971C188.117 89.599 189.063 89.2062 190.051 89.205H278.361C279.104 89.2078 279.83 89.4322 280.446 89.8494C281.062 90.2667 281.539 90.8579 281.817 91.5477C281.871 91.6851 281.918 91.8254 281.957 91.9678C282.042 92.2812 282.085 92.6044 282.085 92.9291V204.653Z" fill="#3F3D56"/>
<path d="M264.352 114.52H237.753C237.189 114.52 236.647 114.296 236.248 113.897C235.849 113.498 235.625 112.956 235.625 112.392C235.625 111.828 235.849 111.286 236.248 110.887C236.647 110.488 237.189 110.264 237.753 110.264H264.352C264.916 110.264 265.458 110.488 265.857 110.887C266.256 111.286 266.48 111.828 266.48 112.392C266.48 112.956 266.256 113.498 265.857 113.897C265.458 114.296 264.916 114.52 264.352 114.52V114.52Z" fill="#3F3D56"/>
<path d="M264.352 125.692H237.753C237.189 125.692 236.647 125.468 236.248 125.069C235.849 124.67 235.625 124.129 235.625 123.564C235.625 123 235.849 122.459 236.248 122.06C236.647 121.661 237.189 121.436 237.753 121.436H264.352C264.916 121.436 265.458 121.661 265.857 122.06C266.256 122.459 266.48 123 266.48 123.564C266.48 124.129 266.256 124.67 265.857 125.069C265.458 125.468 264.916 125.692 264.352 125.692V125.692Z" fill="#3F3D56"/>
<path d="M224.104 132.054H204.665C204.031 132.053 203.422 131.801 202.973 131.352C202.525 130.903 202.272 130.295 202.271 129.66V106.72C202.272 106.085 202.525 105.476 202.973 105.027C203.422 104.579 204.031 104.326 204.665 104.325H224.104C224.739 104.326 225.347 104.579 225.796 105.027C226.245 105.476 226.497 106.085 226.498 106.72V129.66C226.497 130.295 226.245 130.903 225.796 131.352C225.347 131.801 224.739 132.053 224.104 132.054V132.054Z" fill="black"/>
<path d="M264.167 148.569H204.053C203.774 148.57 203.497 148.515 203.238 148.408C202.979 148.301 202.744 148.145 202.546 147.947C202.348 147.749 202.191 147.515 202.084 147.256C201.977 146.998 201.922 146.721 201.922 146.441C201.922 146.161 201.977 145.884 202.084 145.626C202.191 145.367 202.348 145.133 202.546 144.935C202.744 144.737 202.979 144.581 203.238 144.474C203.497 144.367 203.774 144.313 204.053 144.313H264.167C264.731 144.314 265.272 144.539 265.67 144.938C266.068 145.337 266.292 145.877 266.292 146.441C266.292 147.005 266.068 147.546 265.67 147.945C265.272 148.344 264.731 148.568 264.167 148.569V148.569Z" fill="#CCCCCC"/>
<path d="M264.167 159.741H204.053C203.774 159.742 203.497 159.687 203.238 159.581C202.979 159.474 202.744 159.317 202.546 159.119C202.348 158.922 202.191 158.687 202.084 158.429C201.977 158.17 201.922 157.893 201.922 157.613C201.922 157.334 201.977 157.057 202.084 156.798C202.191 156.54 202.348 156.305 202.546 156.107C202.744 155.91 202.979 155.753 203.238 155.646C203.497 155.54 203.774 155.485 204.053 155.485H264.167C264.732 155.485 265.273 155.71 265.672 156.109C266.071 156.508 266.295 157.049 266.295 157.613C266.295 158.178 266.071 158.719 265.672 159.118C265.273 159.517 264.732 159.741 264.167 159.741Z" fill="#CCCCCC"/>
<path d="M264.167 170.914H204.053C203.774 170.914 203.497 170.86 203.238 170.753C202.979 170.646 202.744 170.489 202.546 170.292C202.348 170.094 202.191 169.859 202.084 169.601C201.977 169.343 201.922 169.066 201.922 168.786C201.922 168.506 201.977 168.229 202.084 167.971C202.191 167.712 202.348 167.477 202.546 167.28C202.744 167.082 202.979 166.925 203.238 166.819C203.497 166.712 203.774 166.657 204.053 166.658H264.167C264.732 166.658 265.273 166.882 265.672 167.281C266.071 167.68 266.295 168.221 266.295 168.786C266.295 169.35 266.071 169.891 265.672 170.291C265.273 170.69 264.732 170.914 264.167 170.914V170.914Z" fill="#CCCCCC"/>
<path d="M264.167 182.086H204.053C203.774 182.087 203.497 182.032 203.238 181.925C202.979 181.819 202.744 181.662 202.546 181.464C202.348 181.267 202.191 181.032 202.084 180.773C201.977 180.515 201.922 180.238 201.922 179.958C201.922 179.678 201.977 179.401 202.084 179.143C202.191 178.885 202.348 178.65 202.546 178.452C202.744 178.254 202.979 178.098 203.238 177.991C203.497 177.884 203.774 177.83 204.053 177.83H264.167C264.732 177.83 265.273 178.054 265.672 178.453C266.071 178.852 266.295 179.394 266.295 179.958C266.295 180.523 266.071 181.064 265.672 181.463C265.273 181.862 264.732 182.086 264.167 182.086Z" fill="#CCCCCC"/>
<path d="M264.167 193.259H204.053C203.774 193.259 203.497 193.204 203.238 193.098C202.979 192.991 202.744 192.834 202.546 192.637C202.348 192.439 202.191 192.204 202.084 191.946C201.977 191.687 201.922 191.41 201.922 191.131C201.922 190.851 201.977 190.574 202.084 190.315C202.191 190.057 202.348 189.822 202.546 189.624C202.744 189.427 202.979 189.27 203.238 189.163C203.497 189.057 203.774 189.002 204.053 189.002H264.167C264.731 189.003 265.272 189.228 265.67 189.627C266.068 190.026 266.292 190.567 266.292 191.131C266.292 191.694 266.068 192.235 265.67 192.634C265.272 193.033 264.731 193.258 264.167 193.259Z" fill="#CCCCCC"/>
<path d="M349.722 133.501L299.379 181.434L300.113 182.205L350.455 134.272L349.722 133.501Z" fill="#E6E6E6"/>
<path d="M298.91 182.614L305.3 182.539L305.289 181.474L300.042 181.537L300.363 176.3L299.3 176.236L298.91 182.614Z" fill="#E6E6E6"/>
<path d="M350.924 133.09L350.535 139.469L349.472 139.405L349.792 134.168L344.547 134.231L344.535 133.166L350.924 133.09Z" fill="#E6E6E6"/>
<path d="M324.918 163.705C328.15 163.705 330.77 161.085 330.77 157.853C330.77 154.621 328.15 152.001 324.918 152.001C321.686 152.001 319.066 154.621 319.066 157.853C319.066 161.085 321.686 163.705 324.918 163.705Z" fill="#E6E6E6"/>
<path d="M282.247 20.1863L231.904 68.1189L232.638 68.8896L282.981 20.957L282.247 20.1863Z" fill="#E6E6E6"/>
<path d="M231.434 69.299L237.823 69.2239L237.812 68.1589L232.565 68.2219L232.886 62.9852L231.823 62.9209L231.434 69.299Z" fill="#E6E6E6"/>
<path d="M283.449 19.7747L283.061 26.1534L281.998 26.0897L282.318 20.8524L277.072 20.9154L277.061 19.8511L283.449 19.7747Z" fill="#E6E6E6"/>
<path d="M257.442 50.3902C260.674 50.3902 263.294 47.7701 263.294 44.538C263.294 41.3059 260.674 38.6858 257.442 38.6858C254.21 38.6858 251.59 41.3059 251.59 44.538C251.59 47.7701 254.21 50.3902 257.442 50.3902Z" fill="#E6E6E6"/>
<path d="M483.744 331.614H482.471V337.344H483.744V331.614Z" fill="#3F3D56"/>
</g>
<defs>
<clipPath id="clip0_498_281">
<rect width="569" height="411" fill="white"/>
</clipPath>
</defs>
</svg>
