<svg width="324" height="386" viewBox="0 0 324 386" fill="none" xmlns="http://www.w3.org/2000/svg">
<path d="M40.8667 4L157.467 212.139M40.8667 4L125.667 92.1944L149.049 180.389M40.8667 4L72.6667 131M157.467 212.139L115.067 171.569M157.467 212.139L136.267 207.301M157.467 212.139L199.867 258M157.467 212.139L152.79 194.5M72.6667 131L-51 99.25M72.6667 131L115.067 171.569M-51 99.25L33.8 183.917L136.267 207.301M-51 99.25L122.133 194.5M122.133 194.5L115.067 171.569M122.133 194.5L125.667 207.729M235.2 385L150.4 300.333L134.382 240.361M235.2 385L136.267 207.301M235.2 385C233.629 382.178 210.99 299.157 199.867 258M199.867 258L320 289.75M320 289.75L152.79 194.5M320 289.75L242.267 207.301L149.049 180.389M152.79 194.5L149.049 180.389M149.049 180.389L161 141.583L199.867 131L189.267 171.569L149.049 180.389ZM125.667 207.729L-22.7333 353.25M125.667 207.729L86.8 198.028L12.6 215.667L-22.7333 353.25M125.667 207.729L134.382 240.361M-22.7333 353.25L115.067 317.972L134.382 240.361" stroke="white" stroke-width="2"/>
</svg>
